<svg version="1.1" id="Layer_1" xmlns="http://www.w3.org/2000/svg" xmlns:xlink="http://www.w3.org/1999/xlink" x="0px" y="0px"
	 width="100%" viewBox="0 0 496 496" enable-background="new 0 0 496 496" xml:space="preserve">
<path fill="#000000" opacity="1.000000" stroke="none" 
	d="
M225.890167,229.007233 
	C225.890152,225.371170 225.890152,222.214813 225.890152,218.087006 
	C224.020630,220.054047 222.751053,221.389862 221.541367,222.662643 
	C219.369614,222.428848 219.310501,220.649048 218.818359,219.360947 
	C216.085999,212.209167 213.547577,204.981567 210.715256,197.870544 
	C209.544296,194.930679 209.815964,192.595032 211.598679,189.962540 
	C219.866928,177.753006 219.808151,177.715332 234.635681,177.725357 
	C240.466431,177.729294 246.308105,177.939438 252.124329,177.647507 
	C256.497162,177.428040 258.221985,179.143265 258.030273,183.404709 
	C257.952484,185.133606 257.521484,187.043076 259.181976,189.094650 
	C265.096344,182.412415 272.237274,177.833618 280.713898,175.330582 
	C294.303497,171.317734 307.838257,171.737610 320.820251,177.026871 
	C335.889099,183.166351 343.009949,195.410797 344.302673,211.293930 
	C345.888580,230.778931 337.930542,246.603027 325.180664,260.514954 
	C317.068817,269.366150 308.508240,277.757965 299.020050,285.152863 
	C298.385040,285.647736 297.576569,285.920044 296.848785,286.295898 
	C297.086243,286.761139 297.323700,287.226349 297.561188,287.691589 
	C301.817108,287.691589 306.073059,287.690674 310.329010,287.691803 
	C320.657745,287.694611 330.989288,287.837463 341.313843,287.631470 
	C345.292725,287.552094 346.569122,289.035614 346.459259,292.878448 
	C346.250763,300.171600 346.398895,307.475006 346.398895,314.566437 
	C344.335846,315.941345 342.453094,315.381561 340.682800,315.383759 
	C315.194153,315.415131 289.705444,315.395752 264.216766,315.393250 
	C262.884460,315.393097 261.252869,314.941467 260.269104,315.538239 
	C254.495377,319.040680 253.591431,315.107697 252.070068,310.858398 
	C244.215652,288.920074 236.188919,267.042816 228.095810,245.191101 
	C226.197479,240.065598 225.721954,234.847961 225.890167,229.007233 
M307.551544,207.017532 
	C303.833527,201.676285 298.396271,201.349564 292.810120,202.402679 
	C287.342743,203.433380 284.713928,207.645386 282.726898,212.485840 
	C281.356232,215.824814 283.444702,221.027420 279.049133,222.422546 
	C275.413910,223.576355 271.152832,222.785583 267.168915,222.796112 
	C266.010834,222.799179 264.846680,222.635544 263.694885,222.478165 
	C259.698853,221.932159 257.902100,223.429382 257.987854,227.679092 
	C258.168915,236.652939 258.035034,245.633377 258.008606,254.611053 
	C257.984497,262.806519 257.974487,262.935425 266.085663,262.770538 
	C270.350372,262.683838 274.323242,262.443878 273.398468,270.022217 
	C287.865051,256.951599 301.725525,245.310699 308.611847,227.847092 
	C311.245209,221.168961 311.777100,214.268967 307.551544,207.017532 
z"/>
<path fill="#000000" opacity="1.000000" stroke="none" 
	d="
M216.395294,231.139618 
	C209.622833,241.445160 203.038345,251.422272 196.258514,261.695343 
	C200.107208,263.599030 203.629227,262.552094 207.001556,262.786530 
	C209.157898,262.936432 211.332947,262.837708 213.499329,262.818085 
	C216.830765,262.787964 220.245178,263.177887 223.473557,262.577911 
	C228.203125,261.698975 224.220367,256.414856 227.991806,253.676834 
	C235.666779,274.695129 243.234436,295.419556 251.197159,317.225830 
	C242.142715,317.225830 234.089890,317.306122 226.040512,317.174286 
	C223.785782,317.137390 223.755066,315.089813 223.741104,313.411804 
	C223.696686,308.079071 223.510086,302.735962 223.770798,297.416077 
	C223.965790,293.437286 222.469666,292.257660 218.571930,292.293976 
	C200.740860,292.460205 182.905411,292.219879 165.076050,292.461212 
	C160.245010,292.526581 158.803436,290.956909 158.813309,286.183655 
	C158.856430,265.329559 158.792145,265.374023 170.878830,248.281250 
	C181.652069,233.045959 192.256851,217.691635 202.959076,202.405991 
	C204.071655,200.816910 204.862411,198.874939 207.271118,198.054123 
	C209.318176,200.108124 209.650620,203.006271 210.613480,205.556168 
	C212.906982,211.629990 214.971710,217.791687 217.341263,223.834595 
	C218.356598,226.423981 218.373413,228.650421 216.395294,231.139618 
z"/>
<path fill="#000000" opacity="1.000000" stroke="none" 
	d="
M214.205750,336.896301 
	C213.553696,340.366455 211.658371,343.323700 213.972000,346.689117 
	C210.672012,347.366760 210.743469,344.338196 209.150497,343.425018 
	C206.931671,343.397552 208.041824,346.408081 206.224625,346.750244 
	C204.176025,343.710968 203.894531,334.945282 206.058289,334.198853 
	C209.035065,333.171967 212.350082,332.610718 214.205750,336.896301 
z"/>
<path fill="#000000" opacity="1.000000" stroke="none" 
	d="
M320.908478,335.826111 
	C322.266357,337.724152 323.394806,339.329865 324.653900,341.121460 
	C326.317047,338.824158 324.659729,335.963745 327.165192,333.365601 
	C328.733612,338.262024 328.426788,342.514130 327.608978,347.079163 
	C323.056549,346.514801 323.210449,341.844696 320.071136,340.286835 
	C318.729950,342.252625 320.322479,345.092896 317.879303,347.597931 
	C315.836365,343.137634 316.300812,338.909790 317.302917,335.001678 
	C317.844177,332.890869 319.650574,334.388733 320.908478,335.826111 
z"/>
<path fill="#000000" opacity="1.000000" stroke="none" 
	d="
M290.063110,339.292542 
	C290.364838,341.246002 289.893372,342.652252 289.203308,344.008881 
	C287.310699,347.729736 283.892365,347.754059 280.547455,347.230286 
	C276.852386,346.651672 277.894257,343.395386 278.007263,341.170074 
	C278.141327,338.530853 276.169861,334.625732 280.628174,333.748810 
	C284.907837,332.907104 288.658264,333.917236 290.063110,339.292542 
M280.636963,340.506104 
	C280.661682,342.362305 279.811218,344.777252 282.969910,344.838104 
	C285.540619,344.887634 286.857727,343.402802 286.956970,340.868652 
	C287.049133,338.516357 286.390289,336.572723 283.710938,336.210327 
	C280.982819,335.841370 280.237793,337.376404 280.636963,340.506104 
z"/>
<path fill="#000000" opacity="1.000000" stroke="none" 
	d="
M298.413513,342.345886 
	C299.951294,339.294861 300.515839,336.123352 303.072388,333.090881 
	C306.479675,337.404633 307.343719,341.936401 309.144714,347.729401 
	C304.887268,344.649017 301.569794,342.712708 298.849243,347.270264 
	C296.539978,345.704224 298.065826,344.151031 298.413513,342.345886 
z"/>
<path fill="#000000" opacity="1.000000" stroke="none" 
	d="
M249.598572,339.330780 
	C249.974442,337.376129 249.033966,335.344421 251.655167,333.598114 
	C252.901962,338.196228 252.317490,342.366852 251.978775,346.925568 
	C247.743820,346.261749 247.644638,342.083832 244.970505,340.464966 
	C243.293503,342.110901 245.113159,345.054626 242.470016,346.963226 
	C241.184692,342.324524 241.398636,338.171478 242.172379,333.681000 
	C246.277100,334.541290 246.173950,338.881805 248.983948,340.264648 
	C249.079605,340.311768 249.316635,340.189880 249.414734,340.080933 
	C249.516281,339.968201 249.528671,339.775177 249.598572,339.330780 
z"/>
<path fill="#000000" opacity="1.000000" stroke="none" 
	d="
M229.788696,336.346436 
	C230.944870,339.921234 232.767761,342.919342 233.166519,347.606842 
	C229.290268,343.620300 226.021729,344.215179 222.112350,347.994019 
	C222.234833,342.393799 224.271011,338.646759 226.142242,335.052917 
	C227.368668,332.697510 228.785751,334.358154 229.788696,336.346436 
z"/>
<path fill="#000000" opacity="1.000000" stroke="none" 
	d="
M267.860474,333.854279 
	C269.195953,334.692413 269.724243,335.590240 269.515259,336.713989 
	C267.445343,338.267303 266.252655,334.690979 264.131775,336.420258 
	C263.407104,338.961761 265.876099,338.873871 267.247192,339.622070 
	C269.131165,340.650177 270.648956,341.915863 270.035919,344.299652 
	C269.453705,346.563721 267.704987,347.360626 265.484344,347.364044 
	C263.187439,347.367584 261.270050,346.948029 261.096344,344.160156 
	C262.974182,342.858337 264.661743,346.065857 266.482513,343.648254 
	C265.647980,340.507324 258.443665,340.787476 261.309479,335.479950 
	C262.612946,333.065948 265.169769,333.278748 267.860474,333.854279 
z"/>
<path fill="#000000" opacity="1.000000" stroke="none" 
	d="
M347.619812,343.187286 
	C349.035675,346.463684 346.589142,346.885864 344.535400,347.232361 
	C341.441895,347.754303 338.581787,347.324402 336.845062,344.145325 
	C334.958588,340.692169 336.093048,335.918335 339.316681,334.122406 
	C342.900085,332.126129 346.511963,333.347656 348.549133,337.256500 
	C347.583862,338.421265 346.779022,337.571747 346.037537,336.991150 
	C343.909088,335.324402 341.851868,335.055389 339.892792,337.203888 
	C338.240784,339.015625 337.916687,341.059418 339.354736,343.093170 
	C341.020447,345.448792 343.218903,345.261444 345.509888,344.029572 
	C346.091217,343.716980 346.686005,343.429321 347.619812,343.187286 
z"/>
<path fill="#000000" opacity="1.000000" stroke="none" 
	d="
M357.662445,336.723450 
	C358.621521,331.377991 361.879456,333.816498 364.660187,333.833557 
	C364.225311,336.375610 361.102142,335.242249 360.768402,337.449585 
	C360.867249,339.555389 363.756927,338.598877 364.215759,340.491028 
	C363.772278,342.408722 360.329865,340.829437 360.481171,343.555237 
	C360.629822,346.233459 363.564758,344.858307 364.676331,346.305664 
	C358.833649,348.466492 357.645935,347.735901 357.612274,342.112518 
	C357.602325,340.454376 357.639435,338.795929 357.662445,336.723450 
z"/>
<path fill="#000000" opacity="1.000000" stroke="none" 
	d="
M137.648254,334.694183 
	C139.924881,333.344757 141.975449,333.374329 144.143951,334.167755 
	C143.374969,336.426117 139.387054,334.465240 139.631927,337.674377 
	C139.815018,340.073761 142.550888,338.639374 143.753418,340.401123 
	C140.751022,341.439301 138.795563,343.417969 138.572830,346.947876 
	C136.103195,343.103455 136.918930,339.063049 137.648254,334.694183 
z"/>
<path fill="#000000" opacity="1.000000" stroke="none" 
	d="
M188.177002,334.972504 
	C190.514435,332.113190 193.375443,333.964386 197.725098,333.742188 
	C191.055954,337.108337 194.976776,342.864410 192.393173,347.080078 
	C190.074112,344.699860 191.061493,342.119263 190.843506,339.824066 
	C190.658997,337.881287 191.088959,335.720520 188.177002,334.972504 
z"/>
<path fill="#000000" opacity="1.000000" stroke="none" 
	d="
M158.231659,344.599854 
	C157.951523,345.838165 157.711853,346.641479 156.423431,346.527557 
	C154.110428,342.903900 157.946854,337.465912 152.700714,334.328430 
	C155.650558,333.155334 158.151291,333.584625 161.420319,333.999695 
	C157.300354,336.892822 158.492111,340.699219 158.231659,344.599854 
z"/>
<path fill="#000000" opacity="1.000000" stroke="none" 
	d="
M174.183762,346.818970 
	C176.109192,347.032349 177.874191,346.330658 179.744202,348.897858 
	C176.125900,349.537720 173.176086,349.840057 169.987839,348.653076 
	C170.762131,346.445007 172.443802,347.035400 174.183762,346.818970 
z"/>
</svg>